<svg width="16" height="16" viewBox="0 0 16 16" fill="none" xmlns="http://www.w3.org/2000/svg">
<path d="M10.1212 12.4027C11.3532 10.7501 13.4495 10.2653 15.3 10.5842L15.6867 10.6508L15.4506 10.9933C14.2719 12.7021 12.098 13.2324 10.2553 12.8173L9.87581 12.732L10.1212 12.4027Z" fill="#FFCD00"/>
<path d="M10.6011 0.242133C11.8985 1.38695 12.6737 3.28521 12.3518 5.11078L12.2812 5.51111L11.9828 5.26881C10.6525 4.18878 9.75377 2.18394 10.2291 0.371364L10.3267 0L10.6011 0.242133Z" fill="#FFCD00"/>
<path d="M15.9482 6.11841C15.6934 8.10463 14.3935 10.1202 12.5396 10.569L12.1961 10.6524L12.259 10.2721C12.5889 8.27952 13.8546 6.45852 15.6459 5.83765L16 5.71474L15.9482 6.11841Z" fill="#FFCD00"/>
<path d="M14.0164 1.7544C14.7031 3.49375 14.4945 5.59779 13.4353 7.10362L13.1864 7.45707L13.0326 7.04357C12.3853 5.29807 12.5467 3.20298 13.6166 1.69873L13.8595 1.3574L14.0164 1.7544Z" fill="#FFCD00"/>
<path d="M2.38304 1.69873C3.45326 3.20298 3.61438 5.29807 2.96703 7.04357L2.81343 7.45725L2.56464 7.10379C1.5053 5.59779 1.29683 3.49375 1.98353 1.7544L2.14049 1.3574L2.38304 1.69873Z" fill="#FFCD00"/>
<path d="M5.74487 12.8172C3.90219 13.2323 1.72832 12.7022 0.549786 10.9933L0.313471 10.6507L0.700183 10.5841C2.55086 10.2655 4.64681 10.7501 5.87911 12.4027L6.12438 12.7317L5.74487 12.8172Z" fill="#FFCD00"/>
<path d="M5.77031 0.371364C6.24582 2.18376 5.34744 4.1886 4.01707 5.26863L3.7182 5.51094L3.6478 5.1106C3.32621 3.28504 4.10107 1.38678 5.39848 0.241957L5.67304 0L5.77031 0.371364Z" fill="#FFCD00"/>
<path d="M0.354392 5.83782C2.14539 6.45869 3.41144 8.27969 3.74136 10.2722L3.80423 10.6526L3.46056 10.5692C1.60652 10.1204 0.306553 8.10481 0.0518388 6.11858L0 5.71474L0.354392 5.83782Z" fill="#FFCD00"/>
<path d="M9.29967 14.2478C9.60126 14.5997 9.91453 14.9384 10.2763 15.2062L10.5254 15.3898L10.302 15.6104C10.2097 15.7013 10.1187 15.793 10.028 15.8855L9.91597 15.9998L9.7755 15.9331C8.91343 15.5247 8.6688 14.5087 7.99938 14.0296C7.33011 14.5087 7.08564 15.5247 6.22358 15.9333L6.08278 16L5.97078 15.8855C5.88022 15.7928 5.78903 15.7013 5.69703 15.6106L5.47399 15.39L5.72295 15.2064C6.08454 14.9386 6.39797 14.5999 6.69957 14.248C6.28645 14.4724 5.87638 14.731 5.40599 14.8278C4.56601 14.9827 3.66699 15.038 2.86845 14.6555L2.48238 14.471L2.82909 14.2085C3.61867 13.6108 4.46618 13.0537 5.44839 12.968C6.22134 12.9215 7.005 12.9423 7.76258 13.1339L7.77234 13.1364L7.7821 13.1401C7.92514 13.1908 8.07425 13.1908 8.21745 13.1401L8.22705 13.1364L8.23713 13.1339C8.99423 12.9423 9.77806 12.9215 10.5539 12.968C11.5337 13.0537 12.381 13.611 13.1703 14.2085L13.5169 14.471L13.1309 14.6555C12.3324 15.0381 11.4334 14.9827 10.5913 14.8274C10.122 14.7307 9.7123 14.4722 9.29967 14.2478Z" fill="#FFCD00"/>
<path d="M11.4582 6.44137C11.3742 6.36488 11.2557 6.34876 11.1563 6.40035L9.63627 7.18969L8.20997 5.43556C8.15722 5.37067 8.08065 5.3334 8.00012 5.3334C7.91959 5.3334 7.84304 5.37067 7.79027 5.43556L6.36397 7.18967L4.84389 6.40033C4.74455 6.34876 4.62602 6.36486 4.54199 6.44135C4.45796 6.51784 4.4244 6.64019 4.45653 6.75293L5.5121 10.4567C5.54767 10.5815 5.65557 10.6668 5.77787 10.6668H10.2224C10.3447 10.6668 10.4526 10.5815 10.4881 10.4567L11.5437 6.75294C11.5758 6.6402 11.5423 6.51786 11.4582 6.44137Z" fill="#FFCD00"/>
</svg>
