<svg width="16" height="8" viewBox="0 0 16 8" fill="none" xmlns="http://www.w3.org/2000/svg">
<path d="M5.66891 0.561081H0.434306C0.194486 0.561081 0 0.757996 0 1.00081C0 1.24362 0.194486 1.44054 0.434306 1.44054H5.66909C5.9089 1.44054 6.10321 1.24362 6.10321 1.00081C6.10321 0.757996 5.9089 0.561081 5.66891 0.561081Z" fill="#4A5EA8"/>
<path d="M5.49866 2.62963H1.83933C1.59951 2.62963 1.40484 2.82654 1.40484 3.06936C1.40484 3.31217 1.59933 3.50909 1.83933 3.50909H5.49866C5.73848 3.50909 5.93297 3.31217 5.93297 3.06936C5.93297 2.82654 5.73866 2.62963 5.49866 2.62963Z" fill="#4A5EA8"/>
<path d="M5.32835 4.69887H2.94296C2.70314 4.69887 2.50865 4.89597 2.50865 5.1386C2.50865 5.38124 2.70296 5.57815 2.94296 5.57815H5.32835C5.56817 5.57815 5.76265 5.38124 5.76265 5.1386C5.76265 4.89597 5.56834 4.69887 5.32835 4.69887Z" fill="#4A5EA8"/>
<path d="M11.0076 3.76695C11.2257 3.78405 11.4371 3.71151 11.6035 3.56284L15.5281 0.0464388C15.4502 0.0183595 15.3673 0 15.2777 0H7.92601C7.83535 0 7.74788 0.0187194 7.66379 0.0471587L10.4506 3.47068C10.5918 3.64437 10.7894 3.74949 11.0076 3.76695Z" fill="#4A5EA8"/>
<path d="M15.9829 0.578512L12.0635 4.08969C11.7854 4.33916 11.4374 4.4729 11.0724 4.4729C11.0329 4.4729 10.9931 4.47146 10.9531 4.46822C10.5455 4.43564 10.1766 4.24053 9.91417 3.91833L7.13998 0.509754C7.09607 0.600472 7.06585 0.698209 7.05607 0.800807L6.5455 6.23884C6.50408 6.67965 6.82799 7.04 7.26514 7.04H14.6165C15.0535 7.04 15.4449 6.67965 15.4865 6.23884L15.9973 0.800807C16.0044 0.723049 15.9968 0.64961 15.9829 0.578512Z" fill="#4A5EA8"/>
</svg>
