<svg width="16" height="16" viewBox="0 0 16 16" fill="none" xmlns="http://www.w3.org/2000/svg">
<path d="M15.3711 8C15.3711 7.54777 16.0707 7.04164 15.9941 6.61097C15.9157 6.16801 15.0814 5.92716 14.9286 5.51417C14.7736 5.09377 15.2543 4.38098 15.0299 3.99899C14.8037 3.61329 13.9363 3.66904 13.6471 3.32966C13.3573 2.9896 13.5625 2.15723 13.2171 1.87141C12.873 1.58659 12.0771 1.92968 11.686 1.70635C11.2981 1.48537 11.2034 0.633627 10.7769 0.480694C10.3581 0.330288 9.73016 0.921134 9.28094 0.843488C8.84385 0.768032 8.45888 0 8.00009 0C7.5413 0 7.15632 0.768032 6.7194 0.843488C6.27018 0.921134 5.64257 0.330288 5.22359 0.480525C4.7971 0.633627 4.70192 1.4852 4.31438 1.70635C3.92292 1.92985 3.12683 1.58659 2.78269 1.87157C2.43753 2.1574 2.64309 2.9896 2.35312 3.32966C2.06417 3.66904 1.19649 3.61346 0.970083 3.99899C0.745899 4.38132 1.22656 5.09394 1.07141 5.51434C0.918821 5.92716 0.0847964 6.16784 0.00602458 6.61064C-0.0705259 7.04148 0.628852 7.54777 0.628852 8C0.628852 8.45223 -0.0706968 8.95852 0.00585368 9.3892C0.0846255 9.83216 0.918821 10.0727 1.07158 10.4858C1.22639 10.9062 0.745728 11.6188 0.970083 12.0008C1.19632 12.3867 2.06383 12.331 2.35312 12.6703C2.64292 13.0106 2.4377 13.8428 2.78286 14.1284C3.12717 14.4132 3.92292 14.0703 4.31421 14.2935C4.70209 14.5145 4.79675 15.3664 5.22325 15.5193C5.64206 15.6697 6.26984 15.0789 6.71906 15.1563C7.15598 15.2318 7.5413 16 7.99992 16C8.45854 16 8.84368 15.2318 9.28077 15.1563C9.72999 15.0789 10.3573 15.6697 10.7764 15.5195C11.2029 15.3664 11.2981 14.5145 11.6856 14.2933C12.0769 14.0703 12.873 14.4132 13.2171 14.1283C13.5623 13.8426 13.3569 13.0104 13.6469 12.6702C13.9358 12.331 14.8033 12.3865 15.0297 12.0008C15.2539 11.6185 14.7733 10.9061 14.9284 10.4857C15.0812 10.0727 15.915 9.83216 15.9938 9.3892C16.0705 8.95852 15.3711 8.45223 15.3711 8Z" fill="white"/>
<path d="M6.9991 11.334C6.72371 11.334 6.45816 11.2427 6.26146 11.0768L3.63544 8.8617C3.2322 8.52155 3.2322 7.9657 3.63544 7.62555C4.03869 7.2854 4.69765 7.2854 5.1009 7.62555L6.9696 9.20184L10.8644 5.61785C11.2479 5.26111 11.9069 5.23622 12.3298 5.56808C12.7527 5.89163 12.7822 6.44748 12.3888 6.80422L7.76625 11.0519C7.57938 11.2261 7.304 11.334 7.01877 11.334C7.01877 11.334 7.00894 11.334 6.9991 11.334Z" fill="#04AD5B"/>
</svg>
