<svg width="14" height="12" viewBox="0 0 14 12" fill="none" xmlns="http://www.w3.org/2000/svg">
<path d="M13.6911 5.48221L7.57387 0.211568C7.24958 -0.0705227 6.76315 -0.0705227 6.42412 0.211568L0.306857 5.48221C-0.0763929 5.80885 -0.105874 6.40272 0.247896 6.77389C0.572185 7.11537 1.11758 7.11537 1.47135 6.80359L2.25259 6.13548V10.9459C2.25259 11.5249 2.72428 12 3.29916 12H4.95008C5.28911 12 5.56918 11.7179 5.56918 11.3764V8.73368C5.56918 8.28828 5.93769 7.9171 6.3799 7.9171H7.63283C8.07505 7.9171 8.44356 8.28828 8.44356 8.73368V11.3764C8.44356 11.7179 8.72362 12 9.06265 12H10.7136C11.2885 12 11.7601 11.5249 11.7601 10.9459V6.15032L12.5561 6.83328C12.7183 6.98175 12.9246 7.04114 13.131 7.04114C13.3816 7.04114 13.6322 6.93721 13.7943 6.72935C14.1039 6.37303 14.0596 5.80885 13.6911 5.48221Z" fill="#4A5EA8"/>
</svg>
