<svg width="18" height="18" viewBox="0 0 18 18" fill="none" xmlns="http://www.w3.org/2000/svg">
<path d="M12.6377 0H5.3623C2.40551 0 0 2.40551 0 5.3623V12.6377C0 15.5945 2.40551 18 5.3623 18H12.6377C15.5945 18 18 15.5945 18 12.6377V5.3623C18 2.40551 15.5945 0 12.6377 0ZM16.1892 12.6377C16.1892 14.5991 14.5991 16.1892 12.6377 16.1892H5.3623C3.40088 16.1892 1.8108 14.5991 1.8108 12.6377V5.3623C1.8108 3.40084 3.40088 1.8108 5.3623 1.8108H12.6377C14.5991 1.8108 16.1892 3.40084 16.1892 5.3623V12.6377Z" fill="url(#paint0_linear)"/>
<path d="M12.6377 0H5.3623C2.40551 0 0 2.40551 0 5.3623V12.6377C0 15.5945 2.40551 18 5.3623 18H12.6377C15.5945 18 18 15.5945 18 12.6377V5.3623C18 2.40551 15.5945 0 12.6377 0ZM16.1892 12.6377C16.1892 14.5991 14.5991 16.1892 12.6377 16.1892H5.3623C3.40088 16.1892 1.8108 14.5991 1.8108 12.6377V5.3623C1.8108 3.40084 3.40088 1.8108 5.3623 1.8108H12.6377C14.5991 1.8108 16.1892 3.40084 16.1892 5.3623V12.6377Z" fill="url(#paint1_linear)"/>
<path d="M9.00017 4.34375C6.43315 4.34375 4.34473 6.43218 4.34473 8.99916C4.34473 11.5661 6.43315 13.6546 9.00017 13.6546C11.5672 13.6546 13.6556 11.5662 13.6556 8.99916C13.6556 6.43214 11.5672 4.34375 9.00017 4.34375ZM9.00017 11.8438C7.4291 11.8438 6.15553 10.5703 6.15553 8.99919C6.15553 7.42813 7.42913 6.15455 9.00017 6.15455C10.5712 6.15455 11.8448 7.42813 11.8448 8.99919C11.8448 10.5702 10.5712 11.8438 9.00017 11.8438Z" fill="url(#paint2_linear)"/>
<path d="M9.00017 4.34375C6.43315 4.34375 4.34473 6.43218 4.34473 8.99916C4.34473 11.5661 6.43315 13.6546 9.00017 13.6546C11.5672 13.6546 13.6556 11.5662 13.6556 8.99916C13.6556 6.43214 11.5672 4.34375 9.00017 4.34375ZM9.00017 11.8438C7.4291 11.8438 6.15553 10.5703 6.15553 8.99919C6.15553 7.42813 7.42913 6.15455 9.00017 6.15455C10.5712 6.15455 11.8448 7.42813 11.8448 8.99919C11.8448 10.5702 10.5712 11.8438 9.00017 11.8438Z" fill="url(#paint3_linear)"/>
<path d="M13.6644 5.49475C14.2805 5.49475 14.7799 4.99531 14.7799 4.37921C14.7799 3.76312 14.2805 3.26367 13.6644 3.26367C13.0483 3.26367 12.5488 3.76312 12.5488 4.37921C12.5488 4.99531 13.0483 5.49475 13.6644 5.49475Z" fill="url(#paint4_linear)"/>
<path d="M13.6644 5.49475C14.2805 5.49475 14.7799 4.99531 14.7799 4.37921C14.7799 3.76312 14.2805 3.26367 13.6644 3.26367C13.0483 3.26367 12.5488 3.76312 12.5488 4.37921C12.5488 4.99531 13.0483 5.49475 13.6644 5.49475Z" fill="url(#paint5_linear)"/>
<defs>
<linearGradient id="paint0_linear" x1="9" y1="118.465" x2="9" y2="-25.2053" gradientUnits="userSpaceOnUse">
<stop stop-color="#E09B3D"/>
<stop offset="0.3" stop-color="#C74C4D"/>
<stop offset="0.6" stop-color="#C21975"/>
<stop offset="1" stop-color="#7024C4"/>
</linearGradient>
<linearGradient id="paint1_linear" x1="9" y1="0" x2="9" y2="18" gradientUnits="userSpaceOnUse">
<stop stop-color="white"/>
<stop offset="1" stop-color="white"/>
</linearGradient>
<linearGradient id="paint2_linear" x1="9.00017" y1="65.6222" x2="9.00017" y2="-8.69416" gradientUnits="userSpaceOnUse">
<stop stop-color="#E09B3D"/>
<stop offset="0.3" stop-color="#C74C4D"/>
<stop offset="0.6" stop-color="#C21975"/>
<stop offset="1" stop-color="#7024C4"/>
</linearGradient>
<linearGradient id="paint3_linear" x1="9.00017" y1="4.34375" x2="9.00017" y2="13.6546" gradientUnits="userSpaceOnUse">
<stop stop-color="white"/>
<stop offset="1" stop-color="white"/>
</linearGradient>
<linearGradient id="paint4_linear" x1="13.6644" y1="17.9473" x2="13.6644" y2="0.139509" gradientUnits="userSpaceOnUse">
<stop stop-color="#E09B3D"/>
<stop offset="0.3" stop-color="#C74C4D"/>
<stop offset="0.6" stop-color="#C21975"/>
<stop offset="1" stop-color="#7024C4"/>
</linearGradient>
<linearGradient id="paint5_linear" x1="13.6644" y1="3.26367" x2="13.6644" y2="5.49475" gradientUnits="userSpaceOnUse">
<stop stop-color="white"/>
<stop offset="1" stop-color="white"/>
</linearGradient>
</defs>
</svg>
