<svg width="16" height="16" viewBox="0 0 16 16" fill="none" xmlns="http://www.w3.org/2000/svg">
<path fill-rule="evenodd" clip-rule="evenodd" d="M15.6893 7.32896C15.5309 7.55554 15.3711 7.78392 15.3711 8C15.3711 8.21605 15.5308 8.44444 15.6891 8.67102C15.8623 8.91872 16.0339 9.16427 15.9938 9.3892C15.9521 9.6238 15.6986 9.80161 15.4466 9.97834C15.2228 10.1353 15.0003 10.2914 14.9284 10.4857C14.8547 10.6853 14.9245 10.9509 14.994 11.2156C15.0708 11.5083 15.1475 11.8001 15.0297 12.0008C14.9104 12.2042 14.6128 12.2849 14.3158 12.3654C14.0495 12.4377 13.7835 12.5098 13.6469 12.6702C13.5095 12.8313 13.4833 13.1028 13.4571 13.3743C13.428 13.6761 13.3988 13.9779 13.2171 14.1283C13.0362 14.2781 12.7302 14.2543 12.4239 14.2305C12.1477 14.2091 11.8711 14.1876 11.6856 14.2933C11.5028 14.3976 11.3851 14.6422 11.267 14.8876C11.1346 15.1626 11.0018 15.4386 10.7764 15.5195C10.5568 15.5982 10.28 15.4735 10.0017 15.348C9.74881 15.234 9.49462 15.1195 9.28077 15.1563C9.07553 15.1918 8.88174 15.3799 8.68643 15.5696C8.46578 15.7839 8.24319 16 7.99992 16C7.75662 16 7.53395 15.7838 7.31326 15.5695C7.11795 15.3799 6.92419 15.1918 6.71906 15.1563C6.50522 15.1195 6.25092 15.234 5.99796 15.348C5.71952 15.4734 5.4427 15.5981 5.22325 15.5193C4.99797 15.4385 4.86528 15.1627 4.73305 14.8879C4.61494 14.6424 4.49721 14.3977 4.31421 14.2935C4.12863 14.1876 3.85207 14.2091 3.57584 14.2306C3.26965 14.2544 2.96387 14.2782 2.78286 14.1284C2.60115 13.978 2.57198 13.6762 2.54281 13.3744C2.51658 13.1029 2.49035 12.8315 2.35312 12.6703C2.21635 12.5099 1.95035 12.4378 1.68397 12.3655C1.3869 12.285 1.08936 12.2043 0.970083 12.0008C0.852238 11.8002 0.928907 11.5083 1.00583 11.2155C1.07535 10.9508 1.14507 10.6854 1.07158 10.4858C0.999713 10.2915 0.777024 10.1353 0.553127 9.97829C0.301112 9.80156 0.0475667 9.62376 0.00585369 9.3892C-0.0341206 9.1643 0.137537 8.91879 0.310702 8.67112C0.469146 8.4445 0.628852 8.21608 0.628852 8C0.628852 7.78394 0.469217 7.55555 0.310829 7.32893C0.137693 7.08122 -0.0339533 6.83564 0.00602459 6.61064C0.0477406 6.37614 0.301271 6.19833 0.553234 6.02161C0.77705 5.86464 0.999629 5.70854 1.07141 5.51434C1.14509 5.31468 1.07537 5.04911 1.00585 4.78432C0.928985 4.49156 0.852369 4.19974 0.970083 3.99899C1.08941 3.7958 1.38686 3.71514 1.68384 3.6346C1.95034 3.56233 2.21646 3.49017 2.35312 3.32966C2.49046 3.16859 2.51664 2.89711 2.54282 2.62558C2.57191 2.32383 2.60101 2.02202 2.78269 1.87157C2.96357 1.72179 3.26931 1.74556 3.57553 1.76937C3.85191 1.79085 4.12868 1.81237 4.31438 1.70635C4.49715 1.60205 4.61489 1.35753 4.73303 1.11219C4.86539 0.837321 4.99824 0.561421 5.22359 0.480525C5.44308 0.40182 5.71983 0.526498 5.99819 0.651902C6.25119 0.76588 6.50551 0.880458 6.7194 0.843488C6.92452 0.808065 7.11818 0.620008 7.31341 0.430432C7.53404 0.216185 7.75668 0 8.00009 0C8.24347 0 8.46608 0.21614 8.68672 0.430364C8.88199 0.619963 9.07572 0.808061 9.28094 0.843488C9.49481 0.880454 9.74919 0.7659 10.0022 0.651951C10.2807 0.526556 10.5575 0.401894 10.7769 0.480694C11.0022 0.561474 11.1349 0.837226 11.2671 1.11201C11.3852 1.35744 11.503 1.60209 11.686 1.70635C11.8715 1.81229 12.1481 1.79077 12.4244 1.76929C12.7305 1.74547 13.0363 1.7217 13.2171 1.87141C13.399 2.0219 13.4282 2.3239 13.4574 2.62579C13.4836 2.89726 13.5098 3.16864 13.6471 3.32966C13.7838 3.49013 14.0499 3.56226 14.3162 3.63449C14.6132 3.71501 14.9107 3.79566 15.0299 3.99899C15.1477 4.19961 15.0711 4.49147 14.9942 4.78429C14.9247 5.04903 14.855 5.31456 14.9286 5.51417C15.0004 5.7084 15.223 5.86455 15.4469 6.02157C15.699 6.19841 15.9526 6.37634 15.9941 6.61097C16.0341 6.83587 15.8625 7.08133 15.6893 7.32896ZM6.2617 11.0763C6.45841 11.2422 6.72396 11.3335 6.99935 11.3335H7.01902C7.30424 11.3335 7.57963 11.2256 7.7665 11.0514L12.3891 6.80373C12.7825 6.44699 12.753 5.89114 12.3301 5.56759C11.9071 5.23574 11.2482 5.26063 10.8646 5.61736L6.96984 9.20135L5.10114 7.62506C4.69789 7.28492 4.03893 7.28492 3.63569 7.62506C3.23244 7.96521 3.23244 8.52106 3.63569 8.86121L6.2617 11.0763Z" fill="#518EF8"/>
</svg>
