<svg width="16" height="16" viewBox="0 0 16 16" fill="none" xmlns="http://www.w3.org/2000/svg">
<path d="M7.99973 4C9.10423 4 9.99961 3.10457 9.99961 2C9.99961 0.89543 9.10423 0 7.99973 0C6.89523 0 5.99986 0.89543 5.99986 2C5.99986 3.10457 6.89523 4 7.99973 4Z" fill="#A4AFD3"/>
<path d="M10.9955 9.436L10.5415 5.9C10.4905 5.387 10.0625 5 9.54755 5H8.99959C8.8666 5 8.7396 5.053 8.64561 5.146L7.99965 5.792L7.35369 5.146C7.25969 5.053 7.1327 5 6.99971 5H6.45274C5.93678 5 5.5088 5.387 5.4588 5.887L5.00383 9.437C4.98583 9.579 5.02983 9.723 5.12483 9.83C5.21982 9.938 5.35581 10 5.4998 10H6.03977L6.45774 15.1C6.50774 15.612 6.93671 16 7.45268 16H8.54762C9.06358 16 9.49156 15.612 9.54355 15.091L9.96053 10H10.4995C10.6435 10 10.7795 9.938 10.8745 9.83C10.9705 9.723 11.0145 9.579 10.9955 9.436Z" fill="#A4AFD3"/>
<path d="M12.9996 4C14.1041 4 14.9995 3.10457 14.9995 2C14.9995 0.89543 14.1041 0 12.9996 0C11.8951 0 10.9997 0.89543 10.9997 2C10.9997 3.10457 11.8951 4 12.9996 4Z" fill="#A4AFD3"/>
<path d="M2.99985 0C1.89692 0 0.999976 0.897 0.999976 2C0.999976 3.103 1.89692 4 2.99985 4C4.10179 4 4.99973 3.103 4.99973 2C4.99973 0.897 4.10179 0 2.99985 0Z" fill="#A4AFD3"/>
<path d="M15.9957 9.436L15.5417 5.901C15.4907 5.387 15.0637 5 14.5478 5H13.9998C13.8668 5 13.7398 5.053 13.6458 5.146L12.9998 5.792L12.3539 5.146C12.2599 5.053 12.1329 5 12.0009 5H11.4529C11.3909 5 11.335 5.022 11.276 5.033C11.4049 5.261 11.5059 5.508 11.5359 5.785L11.9889 9.309C12.0449 9.738 11.9109 10.17 11.6229 10.495C11.4869 10.651 11.313 10.761 11.127 10.847L11.4589 14.1C11.5099 14.613 11.9379 15 12.4539 15H13.5488C14.0648 15 14.4928 14.612 14.5448 14.091L14.9607 10H15.4997C15.6437 10 15.7797 9.938 15.8747 9.83C15.9707 9.723 16.0147 9.579 15.9957 9.436Z" fill="#A4AFD3"/>
<path d="M4.37372 10.49C4.08973 10.169 3.95774 9.738 4.01174 9.311L4.46671 5.76C4.49271 5.494 4.5907 5.254 4.71569 5.032C4.6597 5.022 4.6067 5 4.54771 5H3.99974C3.86675 5 3.73976 5.053 3.64576 5.146L2.9998 5.792L2.35384 5.146C2.25985 5.053 2.13285 5 2.00086 5H1.45286C0.936896 5 0.508922 5.387 0.458925 5.887L0.00395343 9.437C-0.0140455 9.579 0.0299518 9.723 0.124946 9.83C0.21994 9.938 0.356932 10 0.499923 10H1.03989L1.45786 14.1C1.50786 14.612 1.93683 15 2.4528 15H3.54774C4.0637 15 4.49168 14.612 4.54367 14.091L4.87565 10.846C4.6887 10.759 4.51371 10.648 4.37372 10.49Z" fill="#A4AFD3"/>
</svg>
