<svg width="16" height="16" viewBox="0 0 16 16" fill="none" xmlns="http://www.w3.org/2000/svg">
<path d="M0.483961 0H0L3.33766 4.75899C3.4337 4.66715 3.53194 4.57728 3.63353 4.49061L0.483961 0Z" fill="white"/>
<path d="M0.966613 0L3.94222 4.24291C4.71615 3.66058 5.61928 3.24692 6.59985 3.05314L7.39386 1.92051L6.04707 0H0.966613Z" fill="white"/>
<path d="M6.53193 0H7.01605L7.87894 1.23033L7.637 1.57579L6.53193 0Z" fill="white"/>
<path d="M8.98424 0H9.46825L7.40159 2.94678C7.22522 2.95909 7.05008 2.97706 6.87782 3.0034L8.98424 0Z" fill="white"/>
<path d="M9.95152 0H15.0321L11.9634 4.37514C11.159 3.72854 10.2038 3.26712 9.15962 3.05659C8.98106 3.02089 8.79962 2.99257 8.61599 2.97139C8.44784 2.95219 8.27777 2.93963 8.10575 2.93397C8.03657 2.93126 7.96738 2.92881 7.8977 2.9283L9.95152 0Z" fill="white"/>
<path d="M15.5161 0H16L12.556 4.91092C12.5356 4.89025 12.5149 4.86981 12.4941 4.84949C12.4755 4.83134 12.4568 4.81329 12.4381 4.79523L12.4125 4.77058C12.3641 4.72428 12.316 4.67824 12.2667 4.63342L15.5161 0Z" fill="white"/>
<path d="M6.70524 11.8577C6.7059 11.6405 6.70724 11.155 6.70524 10.5237L6.70494 10.4274C6.70214 9.55675 6.7015 9.35731 6.8605 9.11279C7.10924 8.73071 7.59064 8.4813 8.04786 8.47872C8.33485 8.47721 8.54906 8.57311 8.5959 8.59482C8.90709 8.73953 9.06764 8.97304 9.12571 9.06807C9.29525 9.34608 9.30712 9.6188 9.29919 9.7648C9.29324 9.87434 9.27435 10.2219 9.00692 10.4969C8.7846 10.7253 8.53012 10.7547 8.39922 10.7698L8.36762 10.7736C8.1996 10.7957 8.03004 10.788 7.93834 10.7706C7.93877 10.4723 7.93922 10.1952 7.93989 9.89696L7.94701 9.89593L7.95836 9.89453C7.97258 9.89285 7.99059 9.89069 8.00279 9.88793C8.12331 9.86169 8.16376 9.82837 8.20334 9.78236C8.26296 9.7129 8.25965 9.55078 8.14858 9.46973C8.03841 9.38931 7.89193 9.43983 7.8198 9.51445C7.7767 9.55896 7.76176 9.61055 7.7558 9.63938L7.79914 12.7915L6.70524 11.8577Z" fill="white"/>
<path fill-rule="evenodd" clip-rule="evenodd" d="M7.86901 14.768C5.10105 14.768 2.8489 12.4759 2.8489 9.6588C2.8489 6.84174 5.10105 4.54961 7.86901 4.54961C10.637 4.54961 12.8891 6.84174 12.8891 9.6588C12.8891 12.4759 10.637 14.768 7.86901 14.768ZM5.46156 9.94067C5.61792 10.928 6.37798 11.6126 6.65947 11.8193L7.99769 12.9621C8.71001 12.5222 9.20021 12.0521 9.50919 11.712C10.0148 11.1553 10.6029 10.4898 10.5595 9.6403C10.5568 9.58847 10.5522 9.54306 10.5476 9.50652C10.5454 9.48956 10.5432 9.4745 10.5413 9.46162C10.5692 9.45581 10.7544 9.41389 10.8518 9.23843C10.9752 9.0161 10.8393 8.79206 10.8336 8.78303L9.89273 7.87222C9.88758 7.77302 9.89639 7.63059 9.90594 7.47605C9.92206 7.21556 9.94029 6.92067 9.89737 6.74037C9.85065 6.54405 9.6521 6.54953 9.61847 6.55047L9.61652 6.55051L9.60278 6.55067L9.59576 6.55065L9.5889 6.5506C9.50487 6.54989 9.37715 6.5488 9.28993 6.74704C9.26989 6.79267 9.26722 6.87735 9.26437 6.96756C9.26143 7.0614 9.25828 7.16124 9.23517 7.22932L8.32185 6.38109C8.25169 6.35292 8.13206 6.31464 7.97944 6.31399C7.82196 6.31314 7.69792 6.35334 7.62688 6.38194C6.80512 7.17249 5.98336 7.96303 5.16158 8.75315C5.06967 8.92064 5.07605 9.11652 5.17983 9.25628C5.27286 9.38142 5.41075 9.41668 5.45388 9.42593C5.43736 9.6031 5.4277 9.72694 5.46156 9.94067Z" fill="white"/>
<path fill-rule="evenodd" clip-rule="evenodd" d="M1.63965 9.65968C1.63965 6.15811 4.42866 3.31938 7.86941 3.31938C11.3102 3.31938 14.0992 6.15811 14.0992 9.65968C14.0992 13.1613 11.3102 16 7.86941 16C4.42866 16 1.63965 13.1613 1.63965 9.65968ZM2.36544 9.65968C2.36544 12.7533 4.82978 15.2613 7.86941 15.2613C10.9091 15.2613 13.3734 12.7533 13.3734 9.65968C13.3734 6.56611 10.9091 4.05805 7.86941 4.05805C4.82978 4.05805 2.36544 6.56611 2.36544 9.65968Z" fill="white"/>
</svg>
