<svg width="18" height="24" viewBox="0 0 18 24" fill="none" xmlns="http://www.w3.org/2000/svg">
<path d="M15.6176 23.6812C15.8824 23.8841 16.2059 24 16.5294 24C16.7353 24 16.9706 23.942 17.1765 23.8551C17.6765 23.6232 18 23.1014 18 22.5507V4.63768C18 2.08696 15.8824 0 13.2941 0H4.70588C2.11765 0 0 2.08696 0 4.63768V22.5217C0 23.0725 0.32353 23.5942 0.82353 23.8261C1.32353 24.058 1.94118 24 2.38235 23.6522L2.41176 23.6232L9 18.1739L15.5882 23.6522L15.6176 23.6812ZM9 15.4783C8.73529 15.4783 8.47059 15.5652 8.2353 15.7391L2.35294 20.6377V4.63768C2.35294 3.36232 3.41177 2.31884 4.70588 2.31884H13.2941C14.5882 2.31884 15.6471 3.36232 15.6471 4.63768V12.6522V20.6667L9.7647 15.7681C9.52941 15.5942 9.26471 15.4783 9 15.4783Z" fill="white"/>
</svg>
