<svg width="18" height="11" viewBox="0 0 18 11" fill="none" xmlns="http://www.w3.org/2000/svg">
<path d="M17.9045 9.27475C17.8827 9.22777 17.8624 9.18881 17.8435 9.15759C17.5312 8.59513 16.9345 7.90476 16.0535 7.08626L16.0349 7.06752L16.0256 7.05832L16.0162 7.0489H16.0067C15.6069 6.66777 15.3537 6.4115 15.2477 6.2803C15.0537 6.03037 15.0102 5.77739 15.1163 5.52105C15.1912 5.32739 15.4726 4.91838 15.9597 4.29349C16.216 3.96232 16.419 3.69689 16.5688 3.49692C17.6498 2.05983 18.1185 1.14152 17.9747 0.741607L17.9188 0.648154C17.8813 0.591892 17.7845 0.540422 17.6285 0.493482C17.4721 0.44664 17.2722 0.438894 17.0285 0.47011L14.3295 0.488755C14.2858 0.473261 14.2233 0.474706 14.142 0.493482C14.0607 0.512258 14.0201 0.521679 14.0201 0.521679L13.9731 0.545149L13.9358 0.573345C13.9046 0.59199 13.8702 0.624783 13.8327 0.671657C13.7954 0.718367 13.7642 0.773185 13.7392 0.835651C13.4454 1.59165 13.1113 2.29453 12.7363 2.94428C12.5051 3.33171 12.2928 3.66748 12.0989 3.95178C11.9053 4.23598 11.7428 4.44537 11.6117 4.5796C11.4804 4.71395 11.3619 4.82158 11.2555 4.90289C11.1492 4.98423 11.0681 5.0186 11.012 5.00603C10.9557 4.99345 10.9027 4.98098 10.8525 4.96851C10.7651 4.91225 10.6947 4.83573 10.6417 4.7389C10.5885 4.64206 10.5526 4.52018 10.5339 4.37335C10.5153 4.22643 10.5042 4.10005 10.5011 3.9938C10.4982 3.88767 10.4995 3.73756 10.5058 3.54389C10.5123 3.35013 10.5153 3.21902 10.5153 3.15029C10.5153 2.91283 10.5199 2.65512 10.5292 2.37709C10.5386 2.09906 10.5463 1.87877 10.5527 1.71648C10.559 1.55403 10.562 1.38216 10.562 1.20096C10.562 1.01977 10.551 0.877668 10.5292 0.774531C10.5076 0.671525 10.4746 0.57154 10.431 0.474607C10.3872 0.377773 10.3231 0.302866 10.2389 0.249689C10.1546 0.196578 10.0497 0.15443 9.92496 0.123115C9.59379 0.048175 9.17208 0.00763592 8.65965 0.00133348C7.4976 -0.0111401 6.75093 0.0638982 6.41979 0.22635C6.28859 0.294988 6.16986 0.388769 6.0637 0.507399C5.95121 0.644904 5.93552 0.719943 6.01673 0.732285C6.39166 0.788449 6.65708 0.922802 6.8133 1.13521L6.86959 1.24777C6.91338 1.32898 6.9571 1.47276 7.00086 1.6789C7.04455 1.88504 7.07275 2.11308 7.08516 2.36288C7.11634 2.81905 7.11634 3.20954 7.08516 3.53438C7.05387 3.85934 7.02433 4.11233 6.99613 4.29352C6.96794 4.47472 6.92579 4.62155 6.86959 4.73397C6.8133 4.84643 6.77584 4.91517 6.75707 4.94011C6.73832 4.96506 6.7227 4.98078 6.71029 4.98696C6.62908 5.01807 6.54462 5.03393 6.45721 5.03393C6.36966 5.03393 6.26351 4.99014 6.13857 4.90263C6.01367 4.81512 5.88405 4.69491 5.74969 4.54181C5.61534 4.38868 5.46382 4.1747 5.29507 3.89982C5.12644 3.62494 4.95148 3.30007 4.77029 2.92521L4.62038 2.65335C4.52666 2.47845 4.39864 2.2238 4.23619 1.8896C4.07364 1.55528 3.92996 1.23188 3.80506 0.919487C3.75514 0.788285 3.68013 0.688398 3.58018 0.619662L3.53327 0.591465C3.50209 0.566518 3.45203 0.540028 3.38336 0.511798C3.31459 0.483601 3.24283 0.463381 3.1678 0.45094L0.599913 0.469585C0.337509 0.469585 0.159465 0.529031 0.0657161 0.64776L0.0281968 0.703924C0.00945366 0.735206 0 0.785166 0 0.853935C0 0.922671 0.0187432 1.00703 0.0562624 1.10692C0.431126 1.98795 0.838782 2.83763 1.27923 3.65609C1.71968 4.47455 2.10242 5.13385 2.42723 5.63338C2.7521 6.13328 3.08324 6.60507 3.42065 7.04854C3.75806 7.49217 3.9814 7.77647 4.09068 7.90137C4.20008 8.0265 4.28602 8.12005 4.34849 8.18252L4.58282 8.40741C4.73277 8.55739 4.95296 8.737 5.2435 8.94627C5.5341 9.15566 5.85582 9.3618 6.20882 9.56502C6.56189 9.76791 6.97263 9.93348 7.44128 10.0615C7.90986 10.1897 8.36593 10.2412 8.80956 10.2163H9.88734C10.1059 10.1975 10.2715 10.1287 10.3841 10.0101L10.4214 9.96313C10.4465 9.92584 10.4699 9.8679 10.4916 9.78994C10.5135 9.71185 10.5244 9.62581 10.5244 9.53223C10.518 9.26362 10.5385 9.02153 10.5852 8.806C10.6319 8.59054 10.6852 8.42809 10.7447 8.31868C10.8042 8.20937 10.8714 8.11713 10.9461 8.04236C11.021 7.96742 11.0744 7.92202 11.1057 7.9064C11.1368 7.89067 11.1617 7.88 11.1804 7.8736C11.3304 7.82364 11.5068 7.87203 11.7101 8.01899C11.9132 8.16581 12.1037 8.34711 12.2818 8.56257C12.4599 8.77823 12.6739 9.02019 12.9237 9.2888C13.1738 9.5575 13.3924 9.75725 13.5798 9.88864L13.7671 10.0011C13.8922 10.0761 14.0547 10.1449 14.2547 10.2073C14.4543 10.2698 14.6292 10.2854 14.7793 10.2542L17.1784 10.2168C17.4157 10.2168 17.6004 10.1775 17.7314 10.0995C17.8626 10.0214 17.9405 9.93539 17.9657 9.8418C17.9908 9.74812 17.9921 9.64183 17.9704 9.523C17.9482 9.40447 17.9263 9.32159 17.9045 9.27475Z" fill="white"/>
</svg>
